<svg width="320" height="320" viewBox="0 0 320 320" fill="none" xmlns="http://www.w3.org/2000/svg">
<path d="M170.801 222.711C170.801 238.893 170.791 255.075 170.82 271.258C170.823 272.479 170.923 273.756 171.286 274.91C171.842 276.685 173.384 277.492 175.205 277.056C176.189 276.822 177.157 276.385 178.039 275.877C202.501 261.784 226.951 247.671 251.4 233.559C251.936 233.249 252.477 232.937 252.972 232.567C255.588 230.604 255.605 228.033 253.005 226.088C252.345 225.595 251.616 225.193 250.901 224.781C236.117 216.242 221.328 207.708 206.541 199.171C201.874 196.476 199.304 192.406 199.172 187.049C199.011 180.511 198.997 173.963 199.177 167.426C199.32 162.256 201.757 158.232 206.264 155.57C208.873 154.03 211.498 152.517 214.143 151.038C214.914 150.608 215.748 150.212 216.603 150.022C218.738 149.546 220.298 150.48 220.845 152.578C221.101 153.562 221.17 154.618 221.175 155.642C221.204 161.77 221.179 167.899 221.194 174.027C221.206 179.46 223.655 183.593 228.268 186.295C239.673 192.977 251.146 199.542 262.608 206.129C263.431 206.602 264.348 206.979 265.27 207.194C267.351 207.681 268.985 206.687 269.486 204.61C269.725 203.621 269.759 202.564 269.759 201.538C269.773 173.511 269.772 145.485 269.768 117.458C269.768 116.839 269.758 116.218 269.695 115.603C269.33 112.034 266.974 110.735 263.71 112.311C262.968 112.67 262.258 113.1 261.544 113.513C233.929 129.443 206.326 145.395 178.691 161.291C173.345 164.366 170.766 168.841 170.785 174.991C170.834 190.897 170.801 206.804 170.801 222.711ZM148.824 222.929C148.824 206.814 148.838 190.7 148.816 174.587C148.809 168.983 146.508 164.565 141.609 161.732C113.411 145.431 85.1933 129.167 56.9757 112.899C56.2648 112.489 55.5162 112.099 54.7375 111.856C52.5244 111.165 50.7013 112.154 50.1251 114.386C49.886 115.307 49.7942 116.291 49.7942 117.246C49.7766 145.411 49.7779 173.575 49.793 201.74C49.7942 202.696 49.8835 203.678 50.1087 204.604C50.617 206.682 52.2363 207.71 54.3135 207.188C55.4257 206.909 56.5102 206.393 57.5129 205.818C68.6173 199.44 79.7041 193.03 90.7959 186.629C95.8838 183.693 98.4844 179.34 98.4441 173.416C98.4026 167.218 98.3925 161.02 98.4529 154.823C98.4982 150.186 101.201 148.664 105.27 150.927C107.917 152.401 110.531 153.934 113.148 155.462C117.96 158.269 120.377 162.505 120.433 168.037C120.494 174.235 120.46 180.433 120.433 186.631C120.428 187.655 120.352 188.706 120.118 189.698C119.115 193.938 116.701 197.094 112.886 199.282C98.1359 207.745 83.4206 216.269 68.6953 224.777C67.9215 225.223 67.1276 225.657 66.4256 226.205C64.0364 228.073 64.054 230.528 66.4457 232.43C66.9276 232.814 67.4611 233.141 67.997 233.45C92.5673 247.632 117.138 261.813 141.718 275.977C142.484 276.417 143.32 276.801 144.171 277.017C146.249 277.545 147.927 276.597 148.448 274.538C148.732 273.419 148.808 272.224 148.81 271.064C148.832 255.019 148.824 238.974 148.824 222.929ZM120.447 84.4094C120.447 91.367 120.459 98.3233 120.434 105.28C120.431 106.304 120.391 107.363 120.135 108.344C119.586 110.445 117.984 111.389 115.888 110.877C114.967 110.652 114.064 110.25 113.234 109.785C110.769 108.407 108.349 106.949 105.905 105.537C100.856 102.622 98.419 98.2314 98.4315 92.4288C98.4441 87.0566 98.4492 81.6843 98.4202 76.312C98.4152 75.3571 98.3472 74.372 98.1019 73.456C97.5936 71.5613 96.0977 70.624 94.1777 70.9939C93.3184 71.1599 92.4553 71.5034 91.6929 71.9387C83.6773 76.5108 75.6805 81.1169 67.6812 85.7166C67.3831 85.8877 67.0962 86.0815 66.8156 86.2803C63.9597 88.2933 63.9144 90.9757 66.7225 92.995C67.3919 93.4756 68.1191 93.8782 68.8349 94.2909C96.5707 110.3 124.317 126.294 152.041 142.324C157.22 145.319 162.265 145.37 167.468 142.348C183.013 133.321 198.602 124.372 214.176 115.394C226.704 108.168 239.247 100.965 251.756 93.7084C256.058 91.2122 256.059 88.1386 251.785 85.655C243.926 81.0892 236.036 76.575 228.144 72.0645C227.377 71.6267 226.537 71.2455 225.683 71.0467C223.511 70.5397 221.832 71.6103 221.372 73.7819C221.19 74.6475 221.2 75.5622 221.197 76.4542C221.182 81.9649 221.264 87.4755 221.166 92.9837C221.072 98.3371 218.728 102.505 214.099 105.292C211.563 106.819 208.991 108.29 206.422 109.764C205.768 110.138 205.087 110.498 204.374 110.734C201.682 111.621 199.698 110.405 199.293 107.606C199.146 106.589 199.132 105.548 199.131 104.517C199.121 91.0159 199.111 77.5161 199.131 64.0162C199.14 58.0992 196.537 53.7472 191.439 50.8158C183.439 46.2172 175.434 41.625 167.456 36.99C162.352 34.0245 157.28 34.0044 152.181 36.9472C144.127 41.5935 136.069 46.2286 128.026 50.8925C123.021 53.7938 120.44 58.1268 120.447 63.9533C120.453 70.7724 120.448 77.5915 120.447 84.4094ZM291.788 159.572C291.788 175.07 291.618 190.569 291.842 206.063C292.013 217.814 288.2 228.071 281.342 237.376C277.616 242.428 273.033 246.497 267.561 249.644C239.68 265.679 211.819 281.751 183.989 297.874C175.918 302.55 167.202 304.255 158.013 304.015C152.045 303.859 146.238 302.775 140.715 300.444C139.197 299.804 137.717 299.048 136.289 298.223C108.006 281.92 79.7443 265.581 51.4499 249.297C45.0825 245.632 40.1606 240.521 36.1798 234.468C32.3614 228.661 29.5997 222.369 28.4385 215.473C28.0623 213.242 27.8321 210.959 27.8295 208.699C27.7918 175.914 27.8006 143.13 27.8069 110.344C27.8082 101.986 30.4263 94.3664 34.5505 87.2176C39.0081 79.4901 45.0019 73.3441 52.8301 68.8613C80.5571 52.9797 108.216 36.9787 135.865 20.96C142.156 17.3151 148.952 15.5475 156.102 15.0568C164.036 14.5133 171.78 15.5462 179.162 18.6526C180.679 19.2917 182.143 20.0818 183.571 20.9046C211.672 37.1057 239.761 53.3257 267.858 69.5306C277.249 74.9469 283.47 83.0871 287.854 92.7861C290.527 98.7007 291.83 104.908 291.807 111.428C291.748 127.476 291.787 143.525 291.788 159.572Z" fill="white"/>
</svg>
